<?xml version="1.0" encoding="utf-8"?>
<!-- Generator: Adobe Illustrator 16.0.0, SVG Export Plug-In . SVG Version: 6.00 Build 0)  -->
<!DOCTYPE svg PUBLIC "-//W3C//DTD SVG 1.1//EN" "http://www.w3.org/Graphics/SVG/1.1/DTD/svg11.dtd">
<svg version="1.1" id="Layer_1" xmlns="http://www.w3.org/2000/svg" xmlns:xlink="http://www.w3.org/1999/xlink"    width="50%" 
   height="50%"
   preserveAspectRatio="x200Y200 meet"
   viewBox="0 0 350 350">
	<path fill="#E9E9E9" d="M74,77H2c-2.2,0-4-1.8-4-4V11c0-2.2,1.8-4,4-4h6v7c0,2.2,1.8,4,4,4s4-1.8,4-4V7h44v7c0,2.2,1.8,4,4,4
		s4-1.8,4-4V7h6c2.2,0,4,1.8,4,4v62C78,75.2,76.2,77,74,77z M74,28c0-1.1-0.9-2-2-2H4c-1.1,0-2,0.9-2,2v43c0,1.1,0.9,2,2,2h68
		c1.1,0,2-0.9,2-2V28z M69,59h-6c-1.1,0-2-0.9-2-2v-4c0-1.1,0.9-2,2-2h6c1.1,0,2,0.9,2,2v4C71,58.1,70.1,59,69,59z M69,48h-6
		c-1.1,0-2-0.9-2-2v-4c0-1.1,0.9-2,2-2h6c1.1,0,2,0.9,2,2v4C71,47.1,70.1,48,69,48z M69,37h-6c-1.1,0-2-0.9-2-2v-4c0-1.1,0.9-2,2-2
		h6c1.1,0,2,0.9,2,2v4C71,36.1,70.1,37,69,37z M55,59h-6c-1.1,0-2-0.9-2-2v-4c0-1.1,0.9-2,2-2h6c1.1,0,2,0.9,2,2v4
		C57,58.1,56.1,59,55,59z M55,48h-6c-1.1,0-2-0.9-2-2v-4c0-1.1,0.9-2,2-2h6c1.1,0,2,0.9,2,2v4C57,47.1,56.1,48,55,48z M55,37h-6
		c-1.1,0-2-0.9-2-2v-4c0-1.1,0.9-2,2-2h6c1.1,0,2,0.9,2,2v4C57,36.1,56.1,37,55,37z M41,70h-6c-1.1,0-2-0.9-2-2v-4c0-1.1,0.9-2,2-2
		h6c1.1,0,2,0.9,2,2v4C43,69.1,42.1,70,41,70z M41,59h-6c-1.1,0-2-0.9-2-2v-4c0-1.1,0.9-2,2-2h6c1.1,0,2,0.9,2,2v4
		C43,58.1,42.1,59,41,59z M41,48h-6c-1.1,0-2-0.9-2-2v-4c0-1.1,0.9-2,2-2h6c1.1,0,2,0.9,2,2v4C43,47.1,42.1,48,41,48z M41,37h-6
		c-1.1,0-2-0.9-2-2v-4c0-1.1,0.9-2,2-2h6c1.1,0,2,0.9,2,2v4C43,36.1,42.1,37,41,37z M27,70h-6c-1.1,0-2-0.9-2-2v-4c0-1.1,0.9-2,2-2
		h6c1.1,0,2,0.9,2,2v4C29,69.1,28.1,70,27,70z M27,59h-6c-1.1,0-2-0.9-2-2v-4c0-1.1,0.9-2,2-2h6c1.1,0,2,0.9,2,2v4
		C29,58.1,28.1,59,27,59z M27,48h-6c-1.1,0-2-0.9-2-2v-4c0-1.1,0.9-2,2-2h6c1.1,0,2,0.9,2,2v4C29,47.1,28.1,48,27,48z M27,37h-6
		c-1.1,0-2-0.9-2-2v-4c0-1.1,0.9-2,2-2h6c1.1,0,2,0.9,2,2v4C29,36.1,28.1,37,27,37z M13,70H7c-1.1,0-2-0.9-2-2v-4c0-1.1,0.9-2,2-2h6
		c1.1,0,2,0.9,2,2v4C15,69.1,14.1,70,13,70z M13,59H7c-1.1,0-2-0.9-2-2v-4c0-1.1,0.9-2,2-2h6c1.1,0,2,0.9,2,2v4
		C15,58.1,14.1,59,13,59z M13,48H7c-1.1,0-2-0.9-2-2v-4c0-1.1,0.9-2,2-2h6c1.1,0,2,0.9,2,2v4C15,47.1,14.1,48,13,48z M13,37H7
		c-1.1,0-2-0.9-2-2v-4c0-1.1,0.9-2,2-2h6c1.1,0,2,0.9,2,2v4C15,36.1,14.1,37,13,37z M64,16c-1.1,0-2-0.9-2-2V2c0-1.1,0.9-2,2-2
		s2,0.9,2,2v12C66,15.1,65.1,16,64,16z M12,16c-1.1,0-2-0.9-2-2V2c0-1.1,0.9-2,2-2s2,0.9,2,2v12C14,15.1,13.1,16,12,16z"/>
</svg>
