<?xml version="1.0" standalone="no"?>
<!DOCTYPE svg PUBLIC "-//W3C//DTD SVG 20010904//EN"
 "http://www.w3.org/TR/2001/REC-SVG-20010904/DTD/svg10.dtd">
<svg version="1.0" xmlns="http://www.w3.org/2000/svg"
 width="299.000000pt" height="168.000000pt" viewBox="0 0 299.000000 168.000000"
 preserveAspectRatio="xMidYMid meet">
<metadata>
Created by potrace 1.15, written by Peter Selinger 2001-2017
</metadata>
<g transform="translate(0.000000,168.000000) scale(0.100000,-0.100000)"
fill="#000000" stroke="none">
<path d="M1611 1268 c-85 -288 -114 -382 -121 -391 -5 -6 -99 346 -142 530
l-10 43 -31 -14 c-127 -54 -368 -159 -502 -218 -88 -39 -181 -79 -207 -89 -26
-10 -56 -24 -67 -31 -21 -13 -20 -17 18 -101 52 -115 169 -386 256 -592 54
-126 99 -233 101 -236 2 -3 31 -2 66 2 35 4 117 13 183 19 139 14 144 16 256
122 11 10 21 18 23 18 2 0 18 13 36 30 39 36 46 34 143 -56 68 -63 86 -70 182
-80 17 -2 59 -8 95 -13 36 -5 89 -12 117 -16 46 -7 53 -5 59 11 4 11 31 71 62
134 30 63 68 144 85 180 16 36 80 169 142 297 62 127 116 241 120 252 6 20
-27 38 -390 216 -218 107 -400 195 -404 195 -4 0 -36 -96 -70 -212z m273 -110
c133 -67 145 -71 139 -50 -5 22 24 92 39 92 19 0 318 -149 318 -159 0 -5 -32
-74 -71 -153 -39 -78 -95 -192 -124 -253 -142 -298 -167 -346 -180 -351 -7 -3
-77 4 -154 17 -157 24 -151 19 -115 93 8 16 14 34 13 40 0 6 -41 47 -90 91
-49 44 -89 86 -89 94 0 19 50 181 56 181 3 0 27 -11 54 -25 l49 -25 -14 -47
-14 -47 47 -43 c26 -23 49 -42 52 -42 4 -1 36 77 66 162 5 14 -15 27 -111 73
-65 32 -114 61 -112 68 2 6 10 35 17 63 l14 52 140 -5 141 -5 -120 62 c-66 34
-121 62 -122 63 -1 1 6 27 15 59 20 67 12 67 156 -5z m-764 42 c0 -5 10 -10
23 -10 13 0 28 -5 34 -11 8 -8 19 -6 41 5 17 9 33 16 35 16 7 0 18 -40 23 -80
2 -19 6 -45 9 -57 3 -13 1 -23 -5 -23 -6 0 -9 4 -6 9 4 5 -7 4 -24 -2 -19 -7
-25 -14 -18 -19 19 -11 2 -21 -19 -10 -21 11 -46 5 -38 -9 4 -5 -1 -6 -9 -3
-9 3 -16 1 -16 -5 0 -6 -7 -11 -16 -11 -15 0 -231 -84 -241 -94 -9 -8 27 -97
41 -102 11 -4 70 19 226 88 30 13 74 33 98 43 23 10 42 22 42 27 0 22 21 4 27
-22 3 -17 14 -35 24 -41 11 -5 18 -17 18 -27 -1 -16 -2 -16 -6 1 -2 9 -9 17
-15 17 -6 0 -8 -9 -3 -22 3 -13 10 -40 15 -61 10 -48 24 -63 18 -19 -3 18 -1
35 4 38 6 4 8 -23 7 -62 -1 -38 3 -90 9 -116 14 -56 5 -87 -35 -124 -23 -20
-24 -23 -6 -15 32 16 42 13 13 -3 -14 -8 -29 -12 -33 -9 -13 8 -67 -48 -60
-61 3 -6 3 -8 -2 -4 -9 9 -47 -10 -41 -20 2 -4 -12 -7 -32 -8 -21 0 -80 -4
-133 -8 l-95 -8 -37 82 c-20 45 -37 87 -37 93 0 13 98 59 109 52 4 -2 14 -23
21 -45 l14 -42 60 7 c65 8 72 11 130 63 l37 32 -17 70 c-16 69 -29 85 -41 54
-4 -11 -8 -12 -13 -4 -5 8 -11 8 -21 -3 -8 -7 -20 -12 -27 -9 -8 2 -10 -2 -6
-13 5 -13 2 -15 -18 -10 -16 4 -57 -8 -128 -39 -58 -24 -111 -46 -118 -48 -7
-2 -24 24 -41 62 -78 180 -121 280 -121 284 0 2 61 29 135 61 82 34 132 61
128 68 -3 6 -1 7 6 3 6 -4 35 4 64 17 28 14 67 30 84 37 33 12 36 30 5 30 -15
0 -15 -2 -2 -11 13 -9 12 -10 -2 -5 -10 3 -20 1 -24 -5 -3 -5 -20 -9 -37 -7
-25 2 -32 -1 -32 -14 0 -24 -17 -28 -21 -5 -1 9 2 17 7 17 5 0 9 10 9 21 0 21
1 21 26 4 25 -16 54 -15 54 4 0 5 -10 7 -22 5 -13 -2 -17 -2 -10 2 6 3 10 10
6 15 -3 5 2 9 10 9 9 0 16 -4 16 -10z"/>
</g>
</svg>
