<?xml version="1.0" standalone="no"?>
<!DOCTYPE svg PUBLIC "-//W3C//DTD SVG 20010904//EN"
 "http://www.w3.org/TR/2001/REC-SVG-20010904/DTD/svg10.dtd">
<svg version="1.0" xmlns="http://www.w3.org/2000/svg"
 width="750.000000pt" height="422.000000pt" viewBox="0 0 750.000000 422.000000"
 preserveAspectRatio="xMidYMid meet">
<metadata>
Created by potrace 1.15, written by Peter Selinger 2001-2017
</metadata>
<g transform="translate(0.000000,422.000000) scale(0.100000,-0.100000)"
fill="#000000" stroke="none">
<path d="M2425 3737 c-11 -7 -22 -13 -24 -14 -1 -1 4 -16 12 -33 9 -17 23 -56
32 -88 22 -76 38 -112 50 -112 5 0 22 6 37 14 14 8 42 19 62 26 40 13 42 19
21 60 -14 28 -16 28 -42 14 -49 -25 -57 -19 -77 54 -17 64 -31 93 -45 91 -3 0
-15 -6 -26 -12z"/>
<path d="M4191 3688 c-7 -24 -17 -47 -21 -53 -4 -5 -15 -45 -24 -87 -10 -43
-21 -80 -27 -83 -5 -4 -9 -16 -9 -28 0 -12 -11 -56 -25 -97 -14 -41 -39 -122
-55 -180 -87 -299 -139 -472 -156 -520 -8 -25 -20 -67 -26 -95 -5 -27 -16 -62
-24 -77 -8 -16 -19 -53 -25 -83 -5 -30 -17 -67 -25 -82 -8 -16 -17 -45 -20
-66 -14 -80 -34 -53 -59 78 -10 50 -21 95 -26 100 -4 6 -14 44 -23 87 -9 42
-20 88 -26 103 -6 15 -19 64 -29 109 -11 44 -28 117 -39 161 -11 44 -30 121
-42 170 -13 50 -31 117 -40 150 -10 33 -23 89 -30 125 -6 36 -15 70 -20 75 -4
6 -10 28 -14 50 -4 22 -17 75 -29 117 -25 90 -20 89 -147 30 -41 -19 -93 -42
-115 -52 -22 -10 -70 -32 -108 -49 -37 -17 -70 -31 -73 -31 -5 0 -70 -28 -140
-61 -22 -10 -45 -19 -50 -19 -5 0 -40 -16 -78 -35 -39 -19 -77 -35 -87 -35 -9
0 -22 -7 -29 -15 -7 -8 -18 -15 -24 -15 -7 0 -31 -9 -54 -20 -22 -11 -45 -20
-50 -20 -5 0 -50 -20 -101 -45 -50 -25 -96 -45 -100 -45 -5 0 -48 -18 -95 -40
-47 -22 -88 -40 -90 -40 -3 0 -39 -16 -80 -35 -42 -19 -82 -35 -90 -35 -7 0
-19 -7 -26 -15 -7 -8 -21 -15 -31 -15 -10 0 -20 -4 -24 -9 -3 -5 -22 -15 -43
-22 -20 -6 -64 -25 -96 -40 -33 -16 -63 -29 -67 -29 -5 0 -41 -15 -81 -34 -40
-19 -85 -38 -101 -41 -15 -4 -30 -11 -33 -16 -3 -5 -21 -16 -41 -24 -33 -14
-35 -17 -29 -47 4 -18 17 -53 30 -78 13 -25 26 -58 30 -75 4 -16 11 -32 14
-35 8 -5 82 -174 82 -185 0 -3 14 -36 31 -73 60 -129 69 -148 69 -158 0 -15
24 -64 32 -64 3 0 10 -15 13 -32 4 -18 21 -62 37 -98 16 -36 35 -78 42 -95 52
-120 91 -207 112 -250 13 -28 24 -55 24 -62 0 -6 7 -24 15 -40 17 -33 55 -120
55 -127 0 -2 13 -33 29 -68 16 -35 34 -80 41 -100 6 -21 15 -38 19 -38 4 0 13
-19 20 -43 7 -23 18 -51 25 -62 7 -11 23 -47 35 -80 12 -33 28 -73 36 -90 34
-73 75 -166 75 -171 0 -3 11 -30 25 -59 13 -30 27 -66 31 -80 3 -14 10 -25 15
-25 5 0 8 -3 7 -7 -4 -14 19 -69 37 -86 11 -12 25 -15 43 -10 25 6 26 5 12
-13 -8 -10 0 -6 18 10 25 23 32 26 32 13 0 -9 -4 -17 -10 -17 -5 0 -10 -6 -10
-12 0 -7 12 -1 25 15 26 30 40 35 31 12 -7 -20 4 -19 21 3 11 13 16 14 20 4 4
-10 9 -9 24 4 12 11 19 13 19 5 0 -9 5 -9 20 -1 15 8 20 8 20 -2 0 -9 3 -9 12
0 7 7 24 12 40 12 22 0 26 -4 21 -17 -5 -14 -1 -13 19 5 19 17 27 20 30 10 4
-10 8 -11 20 -1 8 7 17 10 21 7 3 -3 15 -1 26 6 16 8 21 8 21 -1 0 -8 5 -8 16
2 13 10 17 10 24 0 6 -10 10 -9 18 5 8 15 13 16 25 6 12 -10 16 -10 21 0 5 11
7 11 12 0 5 -10 10 -10 25 4 18 16 19 16 19 -1 0 -17 1 -17 20 0 12 11 20 13
20 6 0 -8 6 -9 18 -3 9 5 32 9 51 11 19 1 41 7 48 13 10 8 13 7 13 -4 0 -8 -3
-18 -7 -24 -5 -5 2 1 15 14 20 22 27 21 22 -3 -1 -5 8 -1 20 10 16 15 23 16
29 7 6 -10 11 -9 21 3 10 12 15 13 21 4 5 -8 19 0 44 25 20 20 40 34 45 31 4
-3 30 18 57 47 26 28 56 60 66 70 10 10 22 16 28 13 5 -4 37 23 71 59 34 36
68 66 76 66 7 0 38 24 67 53 29 30 72 65 96 79 46 26 85 27 75 2 -3 -9 -1 -12
4 -9 5 3 21 -4 35 -17 14 -13 46 -41 71 -63 25 -22 62 -57 83 -77 21 -21 42
-38 47 -38 5 0 18 -13 27 -30 10 -16 22 -30 27 -30 5 0 27 -17 48 -38 21 -21
44 -36 50 -34 7 2 12 -4 12 -13 0 -14 3 -15 15 -5 12 10 15 10 15 0 0 -7 7
-10 15 -6 8 3 15 1 15 -5 0 -6 8 -5 23 2 18 9 20 9 10 -2 -20 -20 -15 -34 5
-16 21 19 37 23 26 6 -4 -8 0 -8 15 0 14 8 21 8 21 1 0 -8 6 -8 20 0 22 12 26
1 8 -20 -7 -8 -3 -6 10 5 20 16 25 17 33 5 8 -13 10 -13 19 0 9 13 10 13 10
-1 0 -8 -6 -21 -12 -29 -7 -8 1 -2 18 13 20 18 34 25 39 18 3 -6 -1 -14 -9
-17 -9 -3 -16 -11 -16 -17 0 -6 12 0 26 14 l26 24 -7 -25 c-7 -23 -7 -23 11
-6 17 18 18 18 25 0 4 -11 8 -14 8 -8 1 7 8 14 15 17 11 4 13 1 9 -11 -6 -15
-5 -15 11 -3 15 13 19 13 27 0 7 -12 10 -12 18 0 6 9 11 10 15 3 4 -6 14 -8
24 -5 15 6 15 5 3 -10 -13 -16 -2 -25 13 -9 9 8 56 11 56 2 0 -3 -5 -11 -12
-18 -7 -7 -8 -12 -4 -12 4 0 16 10 26 22 10 13 22 19 27 14 4 -5 2 -11 -4 -13
-7 -3 -13 -9 -13 -15 0 -6 8 -4 18 5 24 22 33 21 25 0 -6 -16 -4 -16 13 1 17
18 19 18 22 3 3 -15 5 -15 19 -2 19 20 30 11 13 -10 -8 -9 -9 -15 -2 -15 6 0
16 8 21 18 8 12 13 14 18 6 5 -7 23 -10 42 -8 29 3 32 2 21 -11 -7 -9 -10 -19
-6 -22 4 -4 11 -1 16 7 5 8 21 15 35 15 20 1 24 -3 20 -20 -6 -19 -5 -19 8 -2
8 9 20 17 27 17 10 0 10 -3 0 -15 -8 -9 -9 -15 -2 -15 6 0 19 14 29 30 9 17
20 30 23 30 4 0 22 19 40 42 l33 43 -37 -35 -37 -35 15 31 c9 16 27 41 41 54
27 25 35 51 10 30 -30 -25 -14 8 25 53 39 44 56 75 24 42 -9 -9 -19 -14 -21
-11 -3 3 13 28 37 56 23 27 35 47 26 44 -15 -6 -24 11 -8 18 4 2 23 23 42 48
19 25 26 39 17 31 -28 -22 -29 -7 -2 25 14 16 25 31 26 34 0 3 2 16 3 28 2 13
7 27 13 30 15 10 33 48 33 70 0 10 9 27 20 37 11 10 20 25 20 34 0 9 11 34 25
56 13 22 25 46 25 53 0 8 10 28 22 45 12 17 24 40 25 51 2 11 10 27 18 36 8 9
15 22 15 29 0 7 41 95 90 195 50 100 90 186 90 192 0 6 11 25 25 44 14 19 25
44 25 56 0 13 4 25 9 29 10 6 84 154 95 193 4 12 11 22 16 22 5 0 12 10 16 23
6 20 57 130 171 367 85 176 79 159 58 174 -21 15 -21 15 -240 121 -88 43 -167
81 -175 86 -8 5 -22 12 -30 15 -8 4 -202 99 -430 211 -228 113 -485 239 -570
280 -85 41 -162 79 -170 84 -8 5 -27 14 -42 20 -16 6 -28 15 -28 20 0 5 -6 9
-12 9 -11 0 -210 93 -280 131 -29 15 -34 11 -47 -33z m344 -688 c77 -38 145
-70 152 -70 6 0 13 -3 15 -7 2 -5 19 -15 38 -24 115 -54 155 -75 158 -81 2 -5
9 -8 16 -8 7 0 34 -11 60 -25 54 -29 76 -32 76 -10 0 13 94 253 103 261 3 3
152 -66 242 -113 52 -27 113 -57 358 -179 130 -64 237 -121 237 -124 0 -4 -7
-13 -15 -20 -8 -7 -15 -16 -15 -21 0 -4 -38 -86 -85 -183 -47 -96 -85 -178
-85 -182 0 -4 -6 -15 -14 -23 -7 -9 -21 -37 -31 -63 -10 -27 -22 -48 -26 -48
-5 0 -9 -5 -9 -11 0 -7 -33 -80 -74 -163 -40 -83 -113 -232 -160 -331 -48 -99
-91 -188 -96 -197 -6 -10 -14 -26 -20 -35 -5 -10 -37 -76 -71 -148 -78 -166
-240 -499 -245 -504 -2 -2 -43 3 -91 12 -131 25 -196 36 -317 52 -60 8 -123
19 -140 24 -17 5 -71 14 -119 21 -88 12 -89 12 -82 38 4 15 15 44 24 67 10 22
24 58 31 80 7 22 16 45 21 50 4 6 13 23 18 38 10 26 7 31 -45 80 -32 29 -73
68 -94 87 -20 19 -70 65 -111 102 -42 37 -106 96 -143 132 l-68 64 17 68 c9
37 21 74 26 83 5 9 18 50 28 91 45 169 65 230 75 230 6 0 66 -28 134 -62 116
-58 123 -64 119 -88 -6 -28 -33 -128 -49 -179 -10 -34 -10 -35 48 -89 152
-139 190 -172 196 -172 4 0 12 19 18 43 6 23 22 67 34 97 13 30 40 98 59 150
20 52 42 108 50 124 9 16 13 34 11 40 -3 7 -130 74 -284 149 -153 76 -281 141
-284 146 -5 8 6 54 61 250 l18 64 195 -7 c107 -3 266 -9 353 -13 86 -3 157 -4
157 -1 0 3 -42 26 -92 51 -51 25 -145 71 -208 102 -126 63 -144 72 -242 118
-76 36 -78 40 -48 131 10 34 29 94 40 134 12 39 24 72 28 72 4 0 70 -32 147
-70z m-1369 -54 c10 -36 22 -62 26 -60 4 3 6 -1 3 -8 -3 -7 4 -53 14 -103 19
-87 17 -115 -11 -115 -5 0 -34 -11 -64 -25 -30 -14 -56 -25 -59 -25 -2 0 -33
-13 -68 -30 -36 -16 -68 -30 -71 -30 -3 0 -39 -16 -80 -35 -41 -19 -80 -35
-85 -35 -6 0 -39 -13 -73 -30 -34 -16 -65 -30 -70 -30 -4 0 -30 -10 -56 -21
-94 -42 -110 -49 -117 -49 -4 0 -40 -15 -79 -34 -39 -19 -93 -44 -119 -56 -45
-20 -48 -23 -34 -38 9 -9 19 -30 23 -47 3 -16 15 -46 25 -65 10 -19 28 -59 40
-88 21 -51 23 -53 53 -46 17 3 33 10 34 15 2 5 9 9 17 9 13 0 81 29 192 81 35
16 65 29 67 29 3 0 42 18 88 40 46 22 90 40 98 40 8 0 24 7 34 15 11 8 28 15
38 15 10 0 18 4 18 9 0 5 11 12 25 15 58 15 77 26 67 39 -7 8 -7 18 -2 27 8
12 10 10 10 -7 0 -30 5 -29 92 11 40 19 85 38 101 41 15 4 30 11 33 16 18 29
48 -11 60 -81 10 -61 36 -166 43 -180 5 -9 12 -36 16 -60 4 -25 15 -54 24 -64
9 -11 10 -16 4 -12 -17 10 -16 -12 1 -45 13 -26 27 -81 31 -132 2 -16 10 -45
18 -65 8 -21 25 -83 38 -139 22 -100 22 -102 4 -159 -10 -31 -25 -64 -35 -73
-9 -9 -34 -31 -54 -50 -27 -25 -34 -36 -24 -42 7 -4 9 -11 5 -15 -3 -4 -12 -2
-20 4 -8 7 -18 8 -27 1 -12 -7 -12 -11 -2 -17 10 -7 10 -11 -3 -22 -13 -11
-15 -10 -9 4 3 9 2 16 -2 16 -14 -1 -74 -59 -74 -72 0 -6 -3 -8 -7 -5 -6 6
-67 -39 -117 -87 -66 -63 -76 -68 -165 -76 -47 -4 -102 -11 -121 -14 -44 -8
-351 -36 -388 -36 -24 0 -31 8 -55 59 -15 32 -27 62 -27 66 0 3 -13 34 -29 68
-16 34 -37 82 -47 107 -11 25 -29 64 -41 88 -26 49 -30 82 -9 82 8 0 63 23
122 50 137 65 143 65 160 16 8 -22 25 -63 39 -92 14 -29 25 -57 25 -62 0 -26
29 -29 147 -16 67 7 132 15 145 19 37 11 78 29 78 35 0 3 27 26 60 50 33 25
60 51 60 58 0 6 7 12 15 12 7 0 18 6 22 13 4 7 20 20 35 29 23 15 25 21 18 45
-23 75 -50 185 -56 224 -3 24 -12 58 -19 74 -7 17 -14 35 -16 42 -3 8 -27 0
-74 -22 -38 -19 -74 -35 -78 -35 -12 0 -101 -42 -107 -50 -3 -4 -21 -10 -40
-14 -19 -3 -53 -15 -75 -25 -80 -36 -113 -51 -118 -51 -3 0 -39 -16 -80 -35
-41 -19 -78 -35 -82 -35 -4 0 -41 -16 -82 -35 -41 -19 -79 -35 -84 -35 -5 0
-26 -9 -46 -20 -37 -20 -53 -19 -53 4 0 8 -6 19 -14 25 -8 7 -17 24 -21 39 -3
15 -15 45 -25 67 -10 22 -44 99 -75 170 -31 72 -65 147 -75 167 -11 20 -20 43
-20 51 0 7 -11 35 -24 63 -13 27 -40 87 -60 134 -21 47 -41 93 -47 102 -5 10
-9 23 -9 30 0 12 125 78 146 78 5 0 23 7 39 16 17 9 57 27 90 40 33 14 74 31
90 39 81 37 122 55 127 55 7 0 95 40 246 111 56 27 107 49 112 49 5 0 35 13
67 29 32 16 76 36 98 44 86 32 110 42 122 54 7 6 27 15 45 18 18 4 42 14 53
21 11 8 27 14 37 14 10 0 18 4 18 9 0 8 14 15 41 20 4 0 15 -28 25 -63z"/>
<path d="M5074 3706 c-19 -16 -37 -44 -49 -80 -19 -56 -19 -57 0 -94 27 -50
39 -61 74 -68 20 -4 39 -1 56 10 30 20 31 30 5 63 -11 14 -20 21 -20 14 0 -6
-9 -11 -20 -11 -23 0 -36 37 -26 75 10 39 35 43 61 11 14 -18 25 -24 29 -17 4
6 16 11 27 11 28 0 24 30 -12 73 -37 45 -78 49 -125 13z"/>
<path d="M2283 3677 c-16 -8 -23 -24 -28 -59 l-7 -47 -29 30 c-32 32 -46 35
-74 15 -16 -12 -17 -18 -6 -61 7 -27 20 -67 30 -89 11 -23 22 -56 26 -73 7
-37 24 -42 48 -15 13 15 15 25 7 53 -14 48 -13 52 12 35 33 -23 38 -20 38 20
0 31 2 35 15 24 8 -7 17 -28 21 -47 6 -30 10 -34 33 -31 24 3 26 6 24 46 -1
23 -9 56 -17 73 -8 16 -22 54 -31 84 -16 56 -23 61 -62 42z"/>
<path d="M5328 3623 c-9 -2 -24 -20 -33 -39 -20 -43 -12 -88 22 -120 14 -13
23 -29 21 -35 -2 -7 -17 2 -36 22 l-32 34 -20 -21 c-18 -18 -19 -24 -10 -46
15 -31 90 -71 116 -62 71 25 73 117 4 171 -13 11 -13 12 2 13 9 0 24 -7 32
-15 20 -20 56 -3 56 26 0 22 -45 69 -66 69 -7 0 -18 2 -26 4 -7 2 -20 2 -30
-1z"/>
<path d="M2018 3563 c-10 -2 -18 -8 -18 -12 0 -5 -20 -14 -45 -21 -54 -15 -68
-30 -59 -64 8 -33 21 -41 40 -25 20 16 31 0 59 -90 11 -36 25 -66 31 -68 6 -2
21 4 32 14 21 18 21 18 3 73 -29 86 -35 120 -19 120 32 1 39 15 22 48 -8 18
-19 31 -22 31 -4 -1 -15 -3 -24 -6z"/>
<path d="M5544 3502 c-25 -21 -44 -54 -44 -76 0 -8 14 -31 30 -49 30 -35 38
-57 21 -57 -5 0 -18 11 -29 25 -18 23 -23 24 -46 14 -35 -16 -33 -30 9 -73 91
-94 213 9 125 106 -16 18 -30 36 -30 40 0 14 30 -4 41 -24 11 -20 11 -20 35 3
13 12 24 26 24 31 0 16 -36 50 -69 64 -41 17 -41 17 -67 -4z"/>
<path d="M1767 3448 c-15 -12 -16 -16 -2 -42 20 -39 19 -49 -9 -62 -21 -10
-25 -8 -41 31 -17 42 -17 42 -45 28 -29 -14 -29 -14 -15 -56 7 -23 24 -73 36
-112 12 -38 25 -74 29 -78 11 -12 60 11 60 28 0 8 -6 24 -12 35 -10 15 -10 25
-2 38 19 30 39 25 54 -13 13 -33 17 -36 44 -31 16 4 31 8 33 9 4 4 -14 63 -28
92 -5 11 -18 47 -27 80 -19 64 -40 79 -75 53z"/>
</g>
</svg>
