<?xml version="1.0" encoding="utf-8"?>
<!-- Generator: Adobe Illustrator 22.0.1, SVG Export Plug-In . SVG Version: 6.00 Build 0)  -->
<svg version="1.1" id="Layer_1" xmlns="http://www.w3.org/2000/svg" xmlns:xlink="http://www.w3.org/1999/xlink" x="0px" y="0px"
	 width="48px" height="60px" viewBox="0 0 96 120"  xml:space="preserve">
<title>status_red</title>
<g id="Shape">
	<path fill="#E42822" d="M48,120.1l-2.4-1.4c-1.6-0.9-3.3-1.9-5.1-3c-5.8-3.6-11.3-7.7-16.5-12.2C8.1,89.6,0,74.9,0,60V12L48,0
		l48,12v48c0,14.9-8.1,29.6-24,43.5c-5.2,4.5-10.7,8.6-16.5,12.2c-1.7,1.1-3.4,2.1-5.1,3L48,120.1z M10,19.8V60
		c0,11.9,6.9,24,20.6,36c4.8,4.1,9.9,7.9,15.2,11.2l2.2,1.3l2.2-1.3c5.4-3.3,10.4-7.1,15.2-11.2C79.1,84,86,71.9,86,60V19.8l-38-9.5
		L10,19.8z"/>
</g>
<path fill="#910D08" d="M48,0v10.3l10,2.5l28,7V60c0,11.9-6.9,24-20.6,36c-1.2,1-2.3,2-3.6,3c-0.5,0.4-0.9,0.7-1.4,1.1
	c-0.8,0.6-1.6,1.2-2.4,1.8L58,102l0,0c-2.5,1.8-5.1,3.6-7.8,5.3l-2.2,1.3v11.5l2.4-1.4c1.6-0.9,3.3-1.9,5.1-3
	c0.8-0.5,1.7-1.1,2.5-1.6c0.7-0.4,1.3-0.8,2-1.3s1.5-1.1,2.3-1.6s1.3-0.9,1.9-1.3c0.9-0.7,1.7-1.3,2.6-2c0.5-0.4,1-0.7,1.4-1.1
	c1.3-1.1,2.6-2.1,3.8-3.2C87.9,89.6,96,74.9,96,60V12L48,0z"/>
<rect id="Rectangle-7" x="44" y="28" fill="#FFFFFF" width="6" height="34"/>
<rect id="Rectangle-7-Copy-2" x="50" y="28" fill="#D8D8D8" width="6" height="34"/>
<rect id="Rectangle-7-Copy" x="44" y="71" fill="#FFFFFF" width="6" height="8"/>
<rect id="Rectangle-7-Copy-3" x="50" y="71" fill="#D8D8D8" width="6" height="8"/>
</svg>
