<?xml version="1.0" encoding="utf-8"?>
<!-- Generator: Adobe Illustrator 16.0.0, SVG Export Plug-In . SVG Version: 6.00 Build 0)  -->
<!DOCTYPE svg PUBLIC "-//W3C//DTD SVG 1.1//EN" "http://www.w3.org/Graphics/SVG/1.1/DTD/svg11.dtd">
<svg version="1.1" id="Layer_1" xmlns="http://www.w3.org/2000/svg" xmlns:xlink="http://www.w3.org/1999/xlink" x="0px" y="0px"
	 width="29.103px" height="21.975px" viewBox="0 0 29.103 21.975"
	 xml:space="preserve">

		<path fill="#4688d7" d="M19.154,15.356c-2.754-1.963-6.455-1.963-9.208,0c-0.07,0.05-0.136,0.107-0.194,0.169
			c-0.214,0.226-0.35,0.525-0.379,0.849c-0.038,0.413,0.102,0.821,0.379,1.115l3.867,4.078c0.515,0.543,1.348,0.543,1.862,0.001
			l3.868-4.079c0.277-0.293,0.416-0.702,0.379-1.115C19.691,15.962,19.48,15.589,19.154,15.356z M5.149,10.479
			c-0.033,0.029-0.064,0.06-0.095,0.091c-0.23,0.243-0.368,0.568-0.384,0.914c-0.018,0.393,0.122,0.773,0.384,1.05l0.468,0.493
			C6,13.53,6.761,13.571,7.285,13.122c4.21-3.617,10.323-3.617,14.532,0c0.523,0.449,1.285,0.408,1.764-0.096l0.467-0.493
			c0.264-0.277,0.402-0.657,0.385-1.05c-0.02-0.391-0.193-0.755-0.479-1.005C18.504,5.751,10.597,5.752,5.149,10.479z M28.654,5.583
			c-8.041-7.444-20.167-7.444-28.207,0C0.426,5.604,0.405,5.624,0.385,5.645C0.149,5.894,0.011,6.228,0,6.581
			c-0.012,0.384,0.128,0.756,0.385,1.027L0.852,8.1c0.49,0.518,1.276,0.545,1.797,0.064c6.785-6.255,17.019-6.255,23.804,0
			c0.521,0.48,1.307,0.453,1.797-0.063l0.467-0.492c0.256-0.271,0.396-0.644,0.385-1.027S28.928,5.836,28.654,5.583z"/>
</svg>
